<svg width="34" height="33" viewBox="0 0 34 33" fill="none" xmlns="http://www.w3.org/2000/svg">
<circle cx="16.75" cy="16.5" r="16.5" fill="url(#paint0_linear_4_28)"/>
<path d="M16.6406 23.5C16.699 23.5 16.7573 23.4854 16.8156 23.4563C16.874 23.4271 16.9177 23.3979 16.9469 23.3688L24.1219 16.1938C24.2969 16.0188 24.4245 15.8219 24.5047 15.6031C24.5849 15.3844 24.625 15.1656 24.625 14.9469C24.625 14.7135 24.5849 14.4911 24.5047 14.2797C24.4245 14.0682 24.2969 13.8823 24.1219 13.7219L20.4031 10.0031C20.2427 9.82812 20.0568 9.70052 19.8453 9.62031C19.6338 9.5401 19.4115 9.5 19.1781 9.5C18.9594 9.5 18.7406 9.5401 18.5219 9.62031C18.3031 9.70052 18.1062 9.82812 17.9312 10.0031L17.6906 10.2438L19.3094 11.8844C19.5281 12.0885 19.6885 12.3219 19.7906 12.5844C19.8927 12.8469 19.9437 13.124 19.9437 13.4156C19.9437 14.0281 19.7359 14.5422 19.3203 14.9578C18.9047 15.3734 18.3906 15.5812 17.7781 15.5812C17.4865 15.5812 17.2057 15.5302 16.9359 15.4281C16.6661 15.326 16.4292 15.1729 16.225 14.9688L14.5844 13.35L10.7562 17.1781C10.7125 17.2219 10.6797 17.2693 10.6578 17.3203C10.6359 17.3714 10.625 17.426 10.625 17.4844C10.625 17.601 10.6687 17.7068 10.7562 17.8016C10.8437 17.8964 10.9458 17.9438 11.0625 17.9438C11.1208 17.9438 11.1792 17.9292 11.2375 17.9C11.2958 17.8708 11.3396 17.8417 11.3687 17.8125L14.3437 14.8375L15.5687 16.0625L12.6156 19.0375C12.5719 19.0813 12.5391 19.1286 12.5172 19.1797C12.4953 19.2307 12.4844 19.2854 12.4844 19.3438C12.4844 19.4604 12.5281 19.5625 12.6156 19.65C12.7031 19.7375 12.8052 19.7812 12.9219 19.7812C12.9802 19.7812 13.0385 19.7667 13.0969 19.7375C13.1552 19.7083 13.199 19.6792 13.2281 19.65L16.2031 16.6969L17.4281 17.9219L14.475 20.8969C14.4312 20.926 14.3984 20.9698 14.3766 21.0281C14.3547 21.0865 14.3437 21.1448 14.3437 21.2031C14.3437 21.3198 14.3875 21.4219 14.475 21.5094C14.5625 21.5969 14.6646 21.6406 14.7812 21.6406C14.8396 21.6406 14.8943 21.6297 14.9453 21.6078C14.9963 21.5859 15.0437 21.5531 15.0875 21.5094L18.0625 18.5563L19.2875 19.7812L16.3125 22.7562C16.2687 22.8 16.2359 22.8474 16.2141 22.8984C16.1922 22.9495 16.1812 23.0042 16.1812 23.0625C16.1812 23.1792 16.2286 23.2812 16.3234 23.3688C16.4182 23.4563 16.524 23.5 16.6406 23.5ZM16.6187 25.25C16.0792 25.25 15.6016 25.0714 15.1859 24.7141C14.7703 24.3568 14.526 23.9083 14.4531 23.3688C13.9573 23.2958 13.5417 23.0917 13.2062 22.7562C12.8708 22.4208 12.6667 22.0052 12.5937 21.5094C12.0979 21.4365 11.6859 21.2286 11.3578 20.8859C11.0297 20.5432 10.8292 20.1313 10.7562 19.65C10.2021 19.5771 9.75 19.3365 9.4 18.9281C9.05 18.5198 8.875 18.0385 8.875 17.4844C8.875 17.1927 8.92968 16.912 9.03906 16.6422C9.14843 16.3724 9.3052 16.1354 9.50937 15.9313L14.5844 10.8781L17.45 13.7438C17.4792 13.7875 17.5229 13.8203 17.5812 13.8422C17.6396 13.8641 17.6979 13.875 17.7562 13.875C17.8875 13.875 17.9969 13.8349 18.0844 13.7547C18.1719 13.6745 18.2156 13.5687 18.2156 13.4375C18.2156 13.3792 18.2047 13.3208 18.1828 13.2625C18.1609 13.2042 18.1281 13.1604 18.0844 13.1312L14.9562 10.0031C14.7958 9.82812 14.6099 9.70052 14.3984 9.62031C14.187 9.5401 13.9646 9.5 13.7312 9.5C13.5125 9.5 13.2937 9.5401 13.075 9.62031C12.8562 9.70052 12.6594 9.82812 12.4844 10.0031L9.4 13.1094C9.26875 13.2406 9.15937 13.3938 9.07187 13.5687C8.98437 13.7438 8.92604 13.9187 8.89687 14.0938C8.8677 14.2688 8.8677 14.4474 8.89687 14.6297C8.92604 14.812 8.98437 14.9833 9.07187 15.1437L7.80312 16.4125C7.5552 16.0771 7.37291 15.7089 7.25625 15.3078C7.13958 14.9068 7.09583 14.5021 7.125 14.0938C7.15416 13.6854 7.25625 13.288 7.43125 12.9016C7.60625 12.5151 7.84687 12.1688 8.15312 11.8625L11.2375 8.77813C11.5875 8.44271 11.9776 8.1875 12.4078 8.0125C12.838 7.8375 13.2792 7.75 13.7312 7.75C14.1833 7.75 14.6245 7.8375 15.0547 8.0125C15.4849 8.1875 15.8677 8.44271 16.2031 8.77813L16.4437 9.01875L16.6844 8.77813C17.0344 8.44271 17.4245 8.1875 17.8547 8.0125C18.2849 7.8375 18.726 7.75 19.1781 7.75C19.6302 7.75 20.0713 7.8375 20.5016 8.0125C20.9318 8.1875 21.3146 8.44271 21.65 8.77813L25.3469 12.475C25.6823 12.8104 25.9375 13.1969 26.1125 13.6344C26.2875 14.0719 26.375 14.5167 26.375 14.9688C26.375 15.4208 26.2875 15.862 26.1125 16.2922C25.9375 16.7224 25.6823 17.1052 25.3469 17.4406L18.1719 24.5938C17.9677 24.7979 17.7307 24.9583 17.4609 25.075C17.1911 25.1917 16.9104 25.25 16.6187 25.25Z" fill="#DEE3C3"/>
<defs>
<linearGradient id="paint0_linear_4_28" x1="8.875" y1="6.375" x2="20.875" y2="28.125" gradientUnits="userSpaceOnUse">
<stop stop-color="white" stop-opacity="0.2"/>
<stop offset="1" stop-color="white" stop-opacity="0.08"/>
<stop offset="1" stop-color="white" stop-opacity="0.1"/>
</linearGradient>
</defs>
</svg>
